<svg width="21" height="26" viewBox="0 0 21 26" fill="none" xmlns="http://www.w3.org/2000/svg">
<path d="M10.3037 6.01396L10.3037 6.01396C10.4259 6.13624 10.4946 6.30209 10.4946 6.47501C10.4946 6.64793 10.4259 6.81377 10.3036 6.93604C10.1814 7.05831 10.0155 7.12699 9.84258 7.12699C9.66966 7.12698 9.50383 7.05828 9.38156 6.936C9.38156 6.936 9.38156 6.936 9.38156 6.936L10.3037 6.01396ZM10.3037 6.01396C10.0421 5.75235 9.73149 5.54482 9.38968 5.40324C9.04787 5.26165 8.68152 5.18878 8.31155 5.18878C7.94157 5.18878 7.57522 5.26165 7.23341 5.40324C6.89171 5.54478 6.58123 5.75222 6.31967 6.01371M10.3037 6.01396L6.31967 6.01371M6.31967 6.01371C6.25857 6.07406 6.21 6.14587 6.17673 6.22505C6.14342 6.30432 6.12612 6.38941 6.12583 6.4754C6.12554 6.56139 6.14226 6.64659 6.17503 6.72609C6.20781 6.80559 6.25598 6.87783 6.31679 6.93863C6.37759 6.99944 6.44983 7.04761 6.52933 7.08039C6.60883 7.11316 6.69403 7.12988 6.78002 7.12959C6.86601 7.1293 6.9511 7.112 7.03037 7.07869C7.10954 7.04543 7.18135 6.99686 7.24169 6.93577L6.31967 6.01371Z" fill="#4C4452" stroke="#4C4452" stroke-width="0.2"/>
<path d="M4.65183 4.34663L4.65184 4.34663C5.13242 3.86602 5.70296 3.48479 6.33088 3.22468C6.95881 2.96458 7.63181 2.83071 8.31148 2.83071C8.99114 2.83071 9.66415 2.96458 10.2921 3.22468C10.92 3.48479 11.4905 3.86602 11.9711 4.34663C12.0623 4.43781 12.1244 4.55399 12.1495 4.68046C12.1747 4.80694 12.1618 4.93803 12.1124 5.05716L12.0174 5.0178L12.1124 5.05716C12.0631 5.1763 11.9795 5.27812 11.8723 5.34976C11.7651 5.42137 11.6391 5.45961 11.5102 5.45963C11.5102 5.45963 11.5101 5.45963 11.5101 5.45963L11.5101 5.35679C11.4379 5.35689 11.3665 5.34273 11.2999 5.31513C11.2332 5.28753 11.1727 5.24703 11.1218 5.19596L4.65183 4.34663ZM4.65183 4.34663C4.59129 4.40718 4.54327 4.47906 4.5105 4.55816C4.47774 4.63727 4.46088 4.72206 4.46088 4.80768C4.46088 4.89331 4.47775 4.97809 4.51052 5.0572C4.54329 5.1363 4.59133 5.20818 4.65187 5.26872C4.71242 5.32927 4.7843 5.37729 4.86341 5.41005C4.94252 5.44282 5.02731 5.45968 5.11293 5.45967C5.19855 5.45967 5.28334 5.4428 5.36244 5.41003C5.44155 5.37726 5.51343 5.32923 5.57397 5.26868C5.93346 4.90917 6.36024 4.62399 6.82995 4.42942C7.29966 4.23486 7.80309 4.13471 8.3115 4.13471C8.81991 4.13471 9.32335 4.23486 9.79306 4.42942C10.2628 4.62399 10.6895 4.90917 11.049 5.26868L4.65183 4.34663Z" fill="#4C4452" stroke="#4C4452" stroke-width="0.2"/>
<path d="M13.9026 2.41499L13.9027 2.41508C13.9632 2.47562 14.0113 2.5475 14.044 2.62661C14.0768 2.70572 14.0937 2.7905 14.0937 2.87612C14.0936 2.96175 14.0768 3.04653 14.044 3.12563C14.0112 3.20473 13.9632 3.27661 13.9027 3.33715C13.8421 3.39769 13.7702 3.44572 13.6911 3.47848C13.612 3.51124 13.5272 3.5281 13.4416 3.5281C13.356 3.5281 13.2712 3.51123 13.1921 3.47846C13.113 3.44569 13.0411 3.39766 12.9806 3.33711C11.7413 2.10065 10.0622 1.40625 8.31153 1.40625C6.56091 1.40625 4.88176 2.10065 3.64247 3.33711L13.9026 2.41499ZM13.9026 2.41499C12.4186 0.934337 10.4079 0.102794 8.31153 0.102794C6.21519 0.102794 4.20445 0.934337 2.72044 2.41499L2.72036 2.41508C2.59809 2.53736 2.5294 2.7032 2.52941 2.87613C2.52942 3.04905 2.59812 3.21489 2.7204 3.33715C2.84268 3.45942 3.00852 3.52811 3.18144 3.5281C3.35432 3.5281 3.52012 3.45943 3.64239 3.3372L13.9026 2.41499Z" fill="#4C4452" stroke="#4C4452" stroke-width="0.2"/>
<path d="M15.7623 12.1273L19.9139 9.86978C20.0132 9.81577 20.1249 9.78852 20.2379 9.79069C20.3509 9.79286 20.4614 9.82438 20.5585 9.88214L15.7623 12.1273ZM15.7623 12.1273V10.6903V10.6902C15.7616 10.1061 15.5293 9.54606 15.1162 9.13303C14.7032 8.72 14.1432 8.48767 13.5591 8.48703H13.559L2.30603 8.48703L2.30591 8.48703C1.72181 8.4877 1.16182 8.72003 0.748795 9.13306C0.335773 9.54609 0.10345 10.1061 0.102794 10.6902V10.6903L0.102794 18.4646L0.102794 18.4648C0.10345 19.0489 0.335773 19.6089 0.748795 20.0219C1.16182 20.4349 1.72181 20.6672 2.30591 20.6679H2.30603H6.34688L4.30875 24.9608C4.30869 24.9609 4.30864 24.961 4.30858 24.9612C4.27122 25.0385 4.2495 25.1225 4.24469 25.2082C4.23986 25.2941 4.25209 25.3801 4.28065 25.4612C4.30921 25.5424 4.35355 25.6171 4.4111 25.681C4.46866 25.7449 4.5383 25.7969 4.61601 25.8338C4.69372 25.8706 4.77796 25.8918 4.86389 25.896C4.94981 25.9002 5.03571 25.8873 5.11664 25.8582L5.08178 25.7614L5.11664 25.8582C5.19757 25.829 5.27194 25.7841 5.33544 25.7261C5.39886 25.6682 5.4502 25.5983 5.48651 25.5204C5.48657 25.5203 5.48662 25.5202 5.48667 25.5201L7.79033 20.6679H8.46735L10.7709 25.52C10.771 25.5201 10.771 25.5202 10.7711 25.5204C10.8074 25.5982 10.8587 25.6682 10.9221 25.7262L10.9915 25.6503L10.9221 25.7262C10.9856 25.7843 11.06 25.8292 11.1409 25.8584C11.2219 25.8876 11.3078 25.9005 11.3938 25.8963C11.4798 25.8921 11.564 25.871 11.6418 25.8341L11.5977 25.7412L11.6418 25.8341C11.7195 25.7972 11.7892 25.7452 11.8468 25.6813C11.9043 25.6173 11.9487 25.5425 11.9772 25.4613C12.0058 25.3802 12.018 25.2941 12.0131 25.2082C12.0082 25.1224 11.9864 25.0384 11.949 24.961C11.9489 24.9609 11.9489 24.9608 11.9488 24.9607L9.91075 20.6679H13.559H13.5591C14.1432 20.6672 14.7032 20.4349 15.1163 20.0219C15.5293 19.6088 15.7617 19.0488 15.7623 18.4647V18.4646V17.0276L19.914 19.2851L19.9631 19.1948L19.914 19.2851C20.0133 19.3391 20.1249 19.3664 20.2379 19.3642C20.3509 19.362 20.4614 19.3305 20.5586 19.2727C20.6557 19.215 20.7362 19.133 20.7921 19.0347L20.7027 18.9839L20.7921 19.0347C20.848 18.9365 20.8774 18.8254 20.8774 18.7123V10.4426C20.8774 10.3295 20.848 10.2184 20.7921 10.1202C20.7362 10.0219 20.6557 9.93992 20.5585 9.88216L15.7623 12.1273ZM14.4583 18.4645C14.458 18.703 14.3632 18.9316 14.1945 19.1002C14.0259 19.2688 13.7973 19.3637 13.5588 19.3639H2.30615C2.0677 19.3636 1.83909 19.2688 1.67049 19.1002C1.50191 18.9316 1.40707 18.703 1.40678 18.4646C1.40678 18.4646 1.40678 18.4646 1.40678 18.4645V10.6904C1.40678 10.6904 1.40678 10.6903 1.40678 10.6903C1.40707 10.4519 1.50191 10.2233 1.67049 10.0547C1.83907 9.88616 2.06762 9.79132 2.30603 9.79101C2.30607 9.79101 2.30611 9.79101 2.30615 9.79101H13.5589C13.5589 9.79101 13.5589 9.79101 13.559 9.79101C13.7974 9.79131 14.026 9.88615 14.1946 10.0547C14.3632 10.2233 14.4581 10.452 14.4583 10.6904L14.4583 18.4645ZM15.7623 13.6116L19.5734 11.5393V17.6156L15.7623 15.5433V13.6116Z" fill="#4C4452" stroke="#4C4452" stroke-width="0.2"/>
<path d="M5.39148 11.0911H3.38741C3.24177 11.0911 3.10209 11.1489 2.99911 11.2519C2.89612 11.3549 2.83827 11.4946 2.83827 11.6402C2.83827 11.7859 2.89612 11.9255 2.99911 12.0285C3.10209 12.1315 3.24177 12.1894 3.38741 12.1894H5.39148C5.53713 12.1894 5.6768 12.1315 5.77979 12.0285C5.88277 11.9255 5.94063 11.7859 5.94063 11.6402C5.94063 11.4946 5.88277 11.3549 5.77979 11.2519C5.6768 11.1489 5.53713 11.0911 5.39148 11.0911Z" fill="#4C4452"/>
</svg>
