<svg width="20" height="20" viewBox="0 0 20 20" fill="none" xmlns="http://www.w3.org/2000/svg">
<path fill-rule="evenodd" clip-rule="evenodd" d="M13.4825 19.6179C15.3162 20.5773 17.3333 19.6179 18.3418 17.987C20.4506 16.7398 20.4506 13.4779 18.8919 11.4632C18.0668 10.3119 17.0582 10.4078 16.1414 10.8875C16.0497 10.8875 15.958 10.8875 15.8663 10.8875C15.6829 7.62562 17.2416 4.93935 18.8002 2.06121C18.8919 2.15715 19.167 2.25308 19.2587 2.06121C19.442 1.67746 19.7171 1.2937 19.8088 0.814012C19.8088 0.718073 19.8088 0.526197 19.7171 0.430259C19.7171 0.142444 19.3504 -0.0494323 19.0753 0.238382C18.9836 0.334321 18.9836 0.430259 18.8919 0.526197C17.1499 1.86933 15.5913 3.59622 14.3994 5.51498C12.9324 6.85812 11.9238 8.58501 11.6488 10.5997C11.1904 11.655 11.007 12.8063 10.9153 13.7657C10.6403 16.2601 11.2821 18.4666 13.4825 19.6179ZM18.8002 15.1088C18.8002 15.2047 18.4335 15.3966 18.3418 15.4926C18.3418 15.1088 18.0668 14.6291 17.8834 14.2454C17.8834 14.0535 18.1585 13.7657 18.1585 13.5738C18.4335 14.0535 18.8002 14.5332 18.8002 15.1088C18.8002 15.0129 18.8002 15.0129 18.8002 15.1088ZM18.1585 11.751C19.0753 12.5185 19.3504 14.1494 19.2587 15.3007C19.2587 15.5885 19.167 15.8763 19.0753 16.1641C19.0753 16.0682 19.0753 16.0682 19.0753 15.9722C19.3504 15.2047 19.3504 14.4372 19.0753 13.6697C19.0753 13.5738 19.0753 13.4779 19.0753 13.3819C19.0753 13.19 18.9836 12.9982 18.8919 12.8063C18.8002 12.5185 18.7086 12.3266 18.5252 12.0388C18.3418 11.751 17.8834 11.5591 17.5167 11.4632C17.3333 11.5591 17.2416 11.4632 17.1499 11.4632C17.5167 11.3672 17.7917 11.4632 18.1585 11.751ZM14.8578 18.5626C15.4079 18.6585 16.0497 18.6585 16.5081 18.4666C16.5998 18.4666 16.7832 18.4666 16.8749 18.4666H16.9665C16.5081 18.8504 15.958 19.1382 15.3162 19.1382C15.4079 19.0423 15.4079 18.9463 15.2245 18.9463C14.8578 18.9463 14.491 18.8504 14.216 18.7545C14.5827 18.6585 14.7661 18.5626 14.8578 18.5626ZM14.0326 10.4078C14.0326 10.6956 14.0326 11.1753 14.1243 11.5591C14.1243 11.5591 14.0326 11.5591 14.0326 11.655C14.0326 11.2713 14.0326 10.7916 14.0326 10.4078ZM11.8322 15.6844C11.9239 15.7804 12.1072 15.6844 12.1072 15.4926C11.9238 14.7251 11.9238 13.9575 12.1072 13.19C12.1072 13.3819 12.1072 13.5738 12.1072 13.7657C12.1072 13.8616 12.1072 13.8616 12.1072 13.9575C12.0155 14.3413 12.0155 14.6291 12.1072 15.0129C12.1989 16.0682 12.3823 17.2194 12.8407 17.987C12.1072 17.4113 11.8322 16.5479 11.8322 15.6844C11.8322 15.6844 11.8322 15.5885 11.8322 15.6844Z" fill="#9F88B1"/>
<path fill-rule="evenodd" clip-rule="evenodd" d="M2.66365 19.5219C4.49736 20.4813 6.51444 19.5219 7.52297 17.8909C9.63174 16.6437 9.63174 13.3818 8.07309 11.3671C7.24792 10.2159 6.23938 10.3118 5.32253 10.7915C5.23084 10.7915 5.13916 10.7915 5.04747 10.7915C4.8641 7.52962 6.42275 4.84335 7.9814 1.9652C8.07309 2.06114 8.34814 2.15708 8.43983 1.9652C8.6232 1.58145 8.89825 1.19769 8.98994 0.718004C8.98994 0.622065 8.98994 0.430189 8.89825 0.334251C8.89825 0.0464361 8.53151 -0.14544 8.25646 0.142374C8.16477 0.238313 8.16477 0.334251 8.07309 0.430189C6.33107 1.77332 4.77241 3.50021 3.58051 5.51491C2.11354 6.85805 1.105 8.58494 0.829946 10.5996C0.371519 11.655 0.188149 12.8062 0.0964634 13.7656C-0.270278 16.1641 0.371519 18.3706 2.66365 19.5219ZM7.79803 14.9169C7.79803 15.0128 7.52297 15.2047 7.43129 15.3006C7.43129 14.9169 7.15623 14.4372 6.97286 14.0534C6.97286 13.8615 7.15623 13.5737 7.15623 13.3818C7.43129 13.8615 7.79803 14.4372 7.79803 14.9169ZM7.24792 11.655C8.16477 12.4225 8.43983 14.0534 8.34814 15.2047C8.34814 15.4925 8.25646 15.7803 8.16477 16.0681C8.16477 15.9722 8.16477 15.9722 8.16477 15.8762C8.43983 15.1087 8.43983 14.3412 8.16477 13.5737C8.16477 13.4778 8.16477 13.3818 8.16477 13.2859C8.16477 13.094 8.07309 12.9022 7.9814 12.7103C7.88972 12.4225 7.79803 12.2306 7.61466 11.9428C7.43129 11.655 6.97286 11.4631 6.60612 11.3671C6.51444 11.2712 6.42275 11.2712 6.33106 11.1753C6.60612 11.2712 6.97286 11.3671 7.24792 11.655ZM4.03893 18.3706C4.58904 18.4666 5.23084 18.4666 5.68927 18.2747C5.78095 18.2747 5.96432 18.2747 6.05601 18.2747H6.14769C5.68927 18.6584 5.13916 18.9463 4.49736 18.9463C4.58904 18.8503 4.58904 18.7544 4.40567 18.7544C4.03893 18.7544 3.67219 18.6584 3.39713 18.5625C3.67219 18.4666 3.85556 18.4666 4.03893 18.3706ZM3.21376 10.3118C3.21376 10.2159 3.21376 10.3118 3.21376 10.3118C3.21376 10.5996 3.21376 11.0793 3.30545 11.4631C3.30545 11.4631 3.21376 11.4631 3.21376 11.559C3.12208 11.0793 3.12208 10.6956 3.21376 10.3118ZM0.921631 15.5884C1.01332 15.6844 1.19669 15.5884 1.19669 15.3966C1.01332 14.629 1.01332 13.8615 1.19669 13.094C1.19669 13.2859 1.19669 13.4778 1.19669 13.6697C1.19669 13.7656 1.19669 13.7656 1.19669 13.8615C1.105 14.2453 1.105 14.5331 1.19669 14.9169C1.28837 15.9722 1.47174 17.1234 1.93017 17.8909C1.19669 17.2194 0.921631 16.3559 0.921631 15.5884C0.921631 15.4925 0.921631 15.4925 0.921631 15.5884Z" fill="#9F88B1"/>
</svg>
